<?xml version="1.0" encoding="UTF-8" standalone="no"?>
<!-- Created with Inkscape (http://www.inkscape.org/) -->

<svg
   width="23.18494mm"
   height="41.362202mm"
   viewBox="0 0 23.18494 41.362202"
   version="1.1"
   id="svg1"
   inkscape:version="1.4.2 (f4327f4, 2025-05-13)"
   sodipodi:docname="Inkpen.svg"
   inkscape:export-filename="Inkpen.png"
   inkscape:export-xdpi="96"
   inkscape:export-ydpi="96"
   xmlns:inkscape="http://www.inkscape.org/namespaces/inkscape"
   xmlns:sodipodi="http://sodipodi.sourceforge.net/DTD/sodipodi-0.dtd"
   xmlns="http://www.w3.org/2000/svg"
   xmlns:svg="http://www.w3.org/2000/svg">
  <sodipodi:namedview
     id="namedview1"
     pagecolor="#ffffff"
     bordercolor="#000000"
     borderopacity="0.25"
     inkscape:showpageshadow="2"
     inkscape:pageopacity="0.0"
     inkscape:pagecheckerboard="0"
     inkscape:deskcolor="#d1d1d1"
     inkscape:document-units="mm"
     inkscape:lockguides="true"
     inkscape:zoom="2.9127879"
     inkscape:cx="-27.636753"
     inkscape:cy="98.187718"
     inkscape:window-width="2560"
     inkscape:window-height="1369"
     inkscape:window-x="-8"
     inkscape:window-y="-8"
     inkscape:window-maximized="1"
     inkscape:current-layer="layer1"
     inkscape:export-bgcolor="#ffffff00" />
  <defs
     id="defs1" />
  <g
     inkscape:label="图层 1"
     inkscape:groupmode="layer"
     id="layer1"
     transform="translate(-97.430229,-67.835788)">
    <path
       id="path1-8"
       style="display:inline;fill:#c67b7b;fill-opacity:1;stroke-width:0.264583"
       d="m 113.11615,78.953608 -2.53324,6.680437 c -1.5633,3.539848 -4.21742,7.726592 -6.34224,9.723438 -0.22398,0.210495 -0.19057,0.47396 -0.11731,0.65164 0.34653,0.84056 0.8719,1.594461 1.55959,2.153873 0.76544,0.62266 1.85284,1.031444 2.70113,1.211813 2.60585,0.4377 3.96007,-7.508325 5.117,-11.560535 0.19579,-3.249249 -5.86336,7.175379 -5.13879,5.184398 0.60078,-1.650835 9.53696,-15.635176 10.62064,-17.343895 1.08368,-1.708719 0.30308,-2.598865 -0.10725,-4.076733 -0.23097,-0.831884 -1.96278,-2.649533 -1.8291,-3.101456 0.0827,-0.279431 1.49479,-0.189899 2.1282,0.132584 0.67123,0.341738 1.22386,0.896231 1.44039,1.741049 -0.0977,-1.247013 -0.77859,-1.777179 -1.07074,-2.05278 -0.65422,-0.617159 -2.49952,-0.35294 -3.09657,-0.456626 -1.58579,-0.124653 2.04242,2.08925 1.69548,4.380777 -0.11129,0.735045 -2.64449,0.277322 -2.89572,1.111107 l -1.04917,2.766781 m -10.82336,20.039867 c -0.10362,0.0061 -0.22755,0.08075 -0.38964,0.241846 -1.16545,1.158261 -1.83369,2.494068 -2.50476,3.879357 -1.372388,2.83301 -0.33035,5.43582 -3.050461,8.93744 0.760203,-0.2417 3.702381,-0.8655 3.702381,-0.8655 0.45948,-0.10388 2.45166,-2.67436 3.55115,-4.85102 0.48164,-0.9535 1.65815,-2.59047 2.30802,-2.41246 0.72656,0.19902 0.25703,1.50497 -0.80803,3.25672 -1.0567,1.73797 -2.20646,2.99034 -3.60289,3.75344 3.34969,-0.67323 5.08772,-3.50062 5.89004,-5.87972 0.63883,-2.06745 0.60705,-2.20975 -0.39688,-2.360587 -2.36156,-0.354816 -3.3322,-1.475613 -3.85041,-2.391585 -0.41168,-0.727688 -0.53769,-1.326135 -0.84852,-1.307931 z"
       sodipodi:nodetypes="ccscsccszssacscsccscsccssscssss" />
  </g>
</svg>
