<?xml version="1.0" encoding="UTF-8" standalone="no"?>
<!-- Created using Krita: https://krita.org -->

<svg
   width="66.24pt"
   height="116.64pt"
   viewBox="0 0 66.24 116.64"
   version="1.1"
   id="svg1"
   sodipodi:docname="Inkpen_stroke.svg"
   inkscape:export-filename="Inkpen_stroke.png"
   inkscape:export-xdpi="96"
   inkscape:export-ydpi="96"
   inkscape:version="1.4.2 (f4327f4, 2025-05-13)"
   xmlns:inkscape="http://www.inkscape.org/namespaces/inkscape"
   xmlns:sodipodi="http://sodipodi.sourceforge.net/DTD/sodipodi-0.dtd"
   xmlns="http://www.w3.org/2000/svg"
   xmlns:svg="http://www.w3.org/2000/svg">
  <sodipodi:namedview
     id="namedview1"
     pagecolor="#ffffff"
     bordercolor="#000000"
     borderopacity="0.25"
     inkscape:showpageshadow="2"
     inkscape:pageopacity="0.0"
     inkscape:pagecheckerboard="0"
     inkscape:deskcolor="#d1d1d1"
     inkscape:document-units="pt"
     inkscape:zoom="7.4331276"
     inkscape:cx="44.194048"
     inkscape:cy="77.894532"
     inkscape:window-width="2560"
     inkscape:window-height="1369"
     inkscape:window-x="-8"
     inkscape:window-y="-8"
     inkscape:window-maximized="1"
     inkscape:current-layer="svg1" />
  <defs
     id="defs1" />
  <g
     id="layer1"
     transform="matrix(3.06809239247059 0 0 3.0614226264 -301.717457657254 -212.978136078428)"
     fill="none"
     style="stroke:#c67b7b;stroke-opacity:1">
    <path
       id="path1-8"
       transform="matrix(0.9092061 0 0 0.9092061 98.459133123127 69.6885829541971)"
       fill="#000000"
       fill-opacity="0"
       fill-rule="evenodd"
       stroke="#ffffff"
       stroke-width="0.264583"
       stroke-linecap="butt"
       stroke-linejoin="miter"
       stroke-miterlimit="2"
       d="M18.9083 0.000112343C18.7859 0.00141234 18.7045 0.0244123 18.6564 0.0723823C18.6243 0.104362 18.6121 0.148072 18.6154 0.195429C18.6184 0.242789 18.6354 0.293479 18.6642 0.351679C18.7793 0.584478 19.074 0.920406 19.4063 1.33215C20.0711 2.15563 20.8843 3.27687 20.713 4.40832C20.7002 4.49288 20.6528 4.55875 20.5763 4.61535C20.4998 4.67195 20.3944 4.71776 20.2677 4.75402C20.0142 4.82654 19.6792 4.86353 19.3399 4.90441C19.0007 4.94529 18.6569 4.98936 18.379 5.07629C18.1011 5.16321 17.8849 5.29526 17.8185 5.51574L16.7716 8.28137L15.6876 11.1349L13.1544 17.8165C11.5924 21.3534 8.938 25.5375 6.81846 27.5294C6.70209 27.6388 6.65167 27.7649 6.64072 27.8849C6.62972 28.0049 6.65762 28.1193 6.69542 28.2111C7.04338 29.0551 7.57232 29.8107 8.26378 30.3732C9.03418 30.9999 10.123 31.4108 10.9747 31.5919C10.9754 31.5919 10.9761 31.5919 10.9767 31.5919C11.3089 31.6477 11.6213 31.5689 11.9142 31.3829C12.2071 31.197 12.4814 30.9046 12.7384 30.5294C13.2525 29.779 13.7027 28.6989 14.1076 27.4786C14.9173 25.0381 15.5452 22.0382 16.1232 20.0138C16.1234 20.0118 16.1234 20.0098 16.1232 20.0079C16.1355 19.803 16.1232 19.6509 16.088 19.543C16.0528 19.4352 15.9909 19.3686 15.9083 19.3516C15.8257 19.3347 15.7297 19.3642 15.6212 19.4259C15.5127 19.4875 15.3911 19.584 15.2579 19.7071C14.725 20.1996 14.0091 21.1355 13.3087 22.1114C12.6083 23.0873 11.9239 24.1023 11.461 24.7481C11.2296 25.0711 11.0521 25.3032 10.961 25.3868C10.943 25.4034 10.9334 25.4082 10.9258 25.4122C10.9254 25.4003 10.9252 25.381 10.9338 25.3477C10.9428 25.3103 10.9582 25.2591 10.9807 25.1973C11.0543 24.9951 11.2609 24.5962 11.5647 24.0528C11.8685 23.5095 12.271 22.822 12.7405 22.0372C13.6796 20.4676 14.8854 18.5107 16.1077 16.5528C18.5523 12.637 21.0579 8.71402 21.5999 7.85946C22.1443 7.00104 22.2216 6.34265 22.1096 5.71688C21.9977 5.09111 21.7008 4.49797 21.4964 3.7618C21.3777 3.33457 20.8864 2.67538 20.4417 2.06063C20.2193 1.75325 20.0077 1.4584 19.8616 1.21297C19.7885 1.09026 19.7316 0.980886 19.6975 0.888752C19.6634 0.796622 19.6543 0.722875 19.6682 0.675861C19.6752 0.650641 19.6982 0.625491 19.7424 0.603591C19.7866 0.581691 19.8507 0.563511 19.926 0.550861C20.0767 0.525551 20.2785 0.521411 20.4983 0.535231C20.9378 0.562881 21.4474 0.666114 21.7581 0.824293C22.4244 1.16353 22.9712 1.70972 23.1858 2.54695C23.1868 2.55368 23.1905 2.55974 23.196 2.56377C23.2015 2.5678 23.2084 2.56948 23.2151 2.56845C23.2218 2.56742 23.2279 2.56375 23.2319 2.55825C23.2359 2.55276 23.2376 2.54588 23.2366 2.53915C23.1382 1.28344 22.4481 0.742059 22.1585 0.468838C21.8212 0.150726 21.1923 0.0653253 20.5725 0.0411033C19.9527 0.0168833 19.3376 0.0563933 19.0471 0.00594334C19.0465 0.00591739 19.0458 0.00591739 19.0451 0.00594334C18.9949 0.00204334 18.9492 -0.000356657 18.9084 4.33431e-05ZM5.96886 28.3048C5.8541 28.3116 5.72843 28.3919 5.56456 28.5548C4.3956 29.7166 3.72401 31.0541 3.05284 32.4396C2.36419 33.8611 2.28219 35.2234 2.03136 36.6642C1.78053 38.105 1.36316 39.626 0.00596577 41.3732C0.00241455 41.3774 0.000334107 41.3827 3.69439e-05 41.3882C-0.000260219 41.3938 0.00124156 41.3993 0.0043167 41.4039C0.00739184 41.4085 0.0118783 41.412 0.0171021 41.4138C0.0223259 41.4157 0.0280118 41.4158 0.0333058 41.4142C0.410364 41.2943 1.33749 41.0768 2.16807 40.8907C2.99866 40.7047 3.73448 40.5489 3.73448 40.5489C3.80108 40.5338 3.88261 40.4801 3.98448 40.3946C4.08635 40.3091 4.20717 40.1903 4.3419 40.045C4.61137 39.7545 4.93845 39.3549 5.28526 38.8907C5.97889 37.9623 6.75212 36.7759 7.30284 35.6856C7.54253 35.2111 7.95683 34.5632 8.39073 34.0587C8.60768 33.8064 8.82898 33.5907 9.03526 33.4493C9.24155 33.3079 9.43126 33.2439 9.58214 33.2852C9.75619 33.3329 9.85287 33.4406 9.89269 33.6114C9.93249 33.7823 9.90949 34.0159 9.83019 34.2989C9.67162 34.865 9.28985 35.6291 8.75792 36.504C7.70267 38.2396 6.55543 39.4879 5.16417 40.2481C5.15787 40.2506 5.15279 40.2554 5.15 40.2616C5.1472 40.2677 5.14693 40.2747 5.14922 40.2811C5.15151 40.2875 5.1562 40.2927 5.16227 40.2956C5.16835 40.2986 5.17535 40.2991 5.18177 40.2969C8.5434 39.6213 10.286 36.7824 11.09 34.3985C11.0906 34.3985 11.0913 34.3985 11.092 34.3985C11.4115 33.3645 11.5656 32.8123 11.5099 32.4864C11.4821 32.3234 11.3954 32.2181 11.256 32.1485C11.1166 32.0789 10.9256 32.0418 10.674 32.004C8.31927 31.6502 7.35587 30.5388 6.84002 29.627C6.63512 29.2648 6.50159 28.9337 6.37908 28.6934C6.31788 28.5733 6.26058 28.4747 6.19549 28.4063C6.13039 28.338 6.05495 28.2997 5.96893 28.3047Z"
       sodipodi:nodetypes="cccccccccccccccccccccccccccccccccccccccccccccccccccccccccccccccccccccccccccccccccccccccccccccccc"
       style="stroke:#c67b7b;stroke-opacity:1" />
  </g>
</svg>
